<svg xmlns="http://www.w3.org/2000/svg" width="242" height="62" viewBox="0 0 242 62">
  <g id="Group_1" data-name="Group 1" transform="translate(-188 -17)">
    <g id="Component_3_1" data-name="Component 3 – 1" transform="translate(188 17)">
      <g id="Component_2_1" data-name="Component 2 – 1" transform="translate(0 5)">
        <text id="ZARZYCKI_Mechanika_Maszyn" data-name="ZARZYCKI
Mechanika Maszyn" transform="translate(90 21)" fill="#fff" font-size="20" font-family="ZurichBT-Bold, Zurich BT" font-weight="700"><tspan x="-48.726" y="0">ZARZYCKI</tspan><tspan x="-89.878" y="26">Mechanika Maszyn</tspan></text>
      </g>
      <g id="noun_Gear_3372263" transform="translate(179 -1)">
        <path id="Path_1" data-name="Path 1" d="M32,21a11,11,0,0,0-3,21.57V38a7,7,0,0,1,.67-12.91A1,1,0,0,1,31,26v5.24l1,1,1-1V26a1,1,0,0,1,1.33-.94A7,7,0,0,1,35,38v4.6A11,11,0,0,0,32,21Z" fill="#fff"/>
        <path id="Path_2" data-name="Path 2" d="M37,31.65a5,5,0,0,0-2-4v4a1,1,0,0,1-.29.71l-2,2a1,1,0,0,1-1.42,0l-2-2a1,1,0,0,1-.29-.71v-4a5,5,0,0,0,1.33,8.7,1,1,0,0,1,.67.94V43h2V37.3a1,1,0,0,1,.67-.94A5,5,0,0,0,37,31.65Z" fill="#fff"/>
        <path id="Path_3" data-name="Path 3" d="M48.1,43.52a1,1,0,0,1-.1-1.25,18.88,18.88,0,0,0,2.65-6.47,1,1,0,0,1,1-.8H53V29H51.6a1,1,0,0,1-1-.8A18.88,18.88,0,0,0,48,21.73a1,1,0,0,1,.13-1.25L49.59,19,45,14.41,43.52,15.9a1,1,0,0,1-1.25.13,19.08,19.08,0,0,0-6.47-2.65,1,1,0,0,1-.8-1V11H29v1.4a1,1,0,0,1-.8,1A19.08,19.08,0,0,0,21.73,16a1,1,0,0,1-1.25-.13L19,14.41,14.41,19l1.49,1.48a1,1,0,0,1,.1,1.25,18.88,18.88,0,0,0-2.65,6.47,1,1,0,0,1-1,.8H11v6h1.4a1,1,0,0,1,1,.8A18.88,18.88,0,0,0,16,42.27a1,1,0,0,1-.13,1.25L14.41,45,19,49.59l1.48-1.49a1,1,0,0,1,1.25-.1,18.88,18.88,0,0,0,6.47,2.65,1,1,0,0,1,.8,1V53h6V51.6a1,1,0,0,1,.8-1A18.88,18.88,0,0,0,42.27,48a1,1,0,0,1,1.25.13L45,49.59,49.59,45ZM32,45A13,13,0,1,1,45,32,13,13,0,0,1,32,45Z" fill="#fff"/>
        <path id="Path_4" data-name="Path 4" d="M32,1H31V3h1A29,29,0,0,1,61,32c0,.32,0,.65,0,1h2V32A31,31,0,0,0,32,1Z" fill="#fff"/>
        <path id="Path_5" data-name="Path 5" d="M7.38,16.67l-1.7-1.06c-.36.58-.7,1.17-1,1.76l1.77.94A12.249,12.249,0,0,1,7.38,16.67Z" fill="#fff"/>
        <path id="Path_6" data-name="Path 6" d="M9.59,13.6,8,12.33c-.43.52-.84,1.06-1.23,1.6L8.43,15.1C8.8,14.58,9.19,14.08,9.59,13.6Z" fill="#fff"/>
        <path id="Path_7" data-name="Path 7" d="M5.59,20l-1.82-.83c-.28.62-.55,1.25-.78,1.87l1.87.7C5.08,21.16,5.33,20.58,5.59,20Z" fill="#fff"/>
        <path id="Path_8" data-name="Path 8" d="M4.25,23.55,2.34,23c-.2.64-.38,1.3-.53,2l1.95.46C3.9,24.76,4.07,24.15,4.25,23.55Z" fill="#fff"/>
        <path id="Path_9" data-name="Path 9" d="M12.18,10.83,10.81,9.37c-.49.46-1,1-1.43,1.44l1.46,1.36C11.27,11.71,11.72,11.26,12.18,10.83Z" fill="#fff"/>
        <path id="Path_10" data-name="Path 10" d="M21.78,4.85,21.07,3c-.63.24-1.26.5-1.87.78l.8,1.8C20.6,5.32,21.18,5.08,21.78,4.85Z" fill="#fff"/>
        <path id="Path_11" data-name="Path 11" d="M29.14,3.14l-.2-2c-.67.06-1.34.15-2,.26l.32,2C27.88,3.28,28.51,3.2,29.14,3.14Z" fill="#fff"/>
        <path id="Path_12" data-name="Path 12" d="M15.11,8.43,13.94,6.8c-.55.4-1.08.81-1.61,1.24L13.6,9.58C14.09,9.18,14.59,8.79,15.11,8.43Z" fill="#fff"/>
        <path id="Path_13" data-name="Path 13" d="M25.4,3.75,25,1.81c-.66.15-1.32.33-2,.52l.58,1.91C24.17,4.06,24.79,3.9,25.4,3.75Z" fill="#fff"/>
        <path id="Path_14" data-name="Path 14" d="M18.32,6.42l-.94-1.76c-.6.32-1.18.66-1.76,1l1.06,1.7C17.22,7,17.77,6.72,18.32,6.42Z" fill="#fff"/>
        <path id="Path_15" data-name="Path 15" d="M3.39,27.23l-2-.32q-.16,1-.27,2l2,.19C3.21,28.48,3.29,27.85,3.39,27.23Z" fill="#fff"/>
        <path id="Path_16" data-name="Path 16" d="M32,61A29,29,0,0,1,3,32V31H1v1A31,31,0,0,0,32,63h1V61Z" fill="#fff"/>
        <path id="Path_17" data-name="Path 17" d="M59.75,40.45l1.91.59c.2-.65.38-1.31.53-2l-1.95-.46C60.1,39.24,59.93,39.85,59.75,40.45Z" fill="#fff"/>
        <path id="Path_18" data-name="Path 18" d="M51.82,53.17l1.37,1.46c.49-.46,1-.94,1.43-1.43l-1.46-1.37C52.73,52.29,52.28,52.74,51.82,53.17Z" fill="#fff"/>
        <path id="Path_19" data-name="Path 19" d="M58.41,44l1.82.83c.28-.62.55-1.25.78-1.87l-1.87-.71C58.92,42.84,58.67,43.42,58.41,44Z" fill="#fff"/>
        <path id="Path_20" data-name="Path 20" d="M56.62,47.33l1.7,1.06c.36-.58.7-1.17,1-1.76l-1.77-.94A12.25,12.25,0,0,1,56.62,47.33Z" fill="#fff"/>
        <path id="Path_21" data-name="Path 21" d="M34.86,60.86l.2,2c.67-.06,1.34-.15,2-.26l-.32-2C36.12,60.72,35.49,60.8,34.86,60.86Z" fill="#fff"/>
        <path id="Path_22" data-name="Path 22" d="M54.41,50.4,56,51.67c.43-.52.84-1.05,1.23-1.6L55.57,48.9C55.2,49.42,54.81,49.92,54.41,50.4Z" fill="#fff"/>
        <path id="Path_23" data-name="Path 23" d="M60.61,36.77l2,.32q.16-1,.27-2l-2-.19C60.8,35.52,60.71,36.15,60.61,36.77Z" fill="#fff"/>
        <path id="Path_24" data-name="Path 24" d="M38.6,60.25l.45,1.94c.66-.15,1.32-.32,2-.52l-.58-1.91C39.83,59.94,39.22,60.1,38.6,60.25Z" fill="#fff"/>
        <path id="Path_25" data-name="Path 25" d="M42.22,59.15,42.93,61c.63-.24,1.26-.5,1.87-.78l-.8-1.8C43.4,58.68,42.82,58.92,42.22,59.15Z" fill="#fff"/>
        <path id="Path_26" data-name="Path 26" d="M45.68,57.58l.94,1.76c.6-.32,1.18-.66,1.75-1l-1-1.7C46.78,57,46.23,57.28,45.68,57.58Z" fill="#fff"/>
        <path id="Path_27" data-name="Path 27" d="M48.89,55.57l1.17,1.63c.55-.4,1.08-.81,1.61-1.24L50.4,54.42C49.91,54.82,49.41,55.2,48.89,55.57Z" fill="#fff"/>
      </g>
    </g>
  </g>
</svg>
